<?xml version="1.0" encoding="UTF-8"?>
<!-- Generated by Pixelmator Pro 3.5.7 -->
<svg width="300" height="300" viewBox="0 0 300 300" xmlns="http://www.w3.org/2000/svg">
    <defs>
        <style>
        #path1 { fill: #ffffff; stroke: #000000; }
        @media (prefers-color-scheme: dark) {
            #path1 { fill: #0d1117; stroke: #ffffff; }
        }
        </style>
    </defs>
    <path id="path1" fill-rule="evenodd" stroke-width="1.824818" d="M 151.90625 0.921875 L 155.75 1.015625 L 159.578125 1.203125 L 163.34375 1.5 L 167.125 1.875 L 170.84375 2.34375 L 174.546875 2.90625 L 178.21875 3.578125 L 181.84375 4.3125 L 185.46875 5.140625 L 189.03125 6.078125 L 192.578125 7.0625 L 196.078125 8.15625 L 199.53125 9.328125 L 202.96875 10.578125 L 206.34375 11.921875 L 209.6875 13.328125 L 213 14.828125 L 216.25 16.40625 L 219.46875 18.046875 L 222.625 19.765625 L 225.765625 21.5625 L 228.828125 23.421875 L 231.859375 25.359375 L 234.828125 27.375 L 237.75 29.453125 L 240.625 31.609375 L 243.453125 33.828125 L 246.203125 36.09375 L 248.90625 38.4375 L 251.5625 40.84375 L 254.140625 43.3125 L 256.671875 45.84375 L 259.140625 48.421875 L 261.546875 51.078125 L 263.890625 53.78125 L 266.15625 56.53125 L 268.375 59.359375 L 270.53125 62.234375 L 272.609375 65.15625 L 274.625 68.125 L 276.5625 71.15625 L 278.421875 74.21875 L 280.21875 77.359375 L 281.9375 80.515625 L 283.578125 83.734375 L 285.15625 86.984375 L 286.65625 90.296875 L 288.0625 93.640625 L 289.40625 97.015625 L 290.65625 100.453125 L 291.828125 103.90625 L 292.921875 107.40625 L 293.90625 110.953125 L 294.84375 114.515625 L 295.671875 118.140625 L 296.40625 121.765625 L 297.078125 125.4375 L 297.640625 129.140625 L 298.109375 132.859375 L 298.484375 136.640625 L 298.78125 140.40625 L 298.96875 144.234375 L 299.0625 148.0625 L 299.078125 150 L 299.0625 151.90625 L 298.96875 155.75 L 298.78125 159.578125 L 298.484375 163.34375 L 298.109375 167.125 L 297.640625 170.84375 L 297.078125 174.546875 L 296.40625 178.21875 L 295.671875 181.84375 L 294.84375 185.46875 L 293.90625 189.03125 L 292.921875 192.578125 L 291.828125 196.078125 L 290.65625 199.53125 L 289.40625 202.96875 L 288.0625 206.34375 L 286.65625 209.6875 L 285.15625 213 L 283.578125 216.25 L 281.9375 219.46875 L 280.21875 222.625 L 278.421875 225.765625 L 276.5625 228.828125 L 274.625 231.859375 L 272.609375 234.828125 L 270.53125 237.75 L 268.375 240.625 L 266.15625 243.453125 L 263.890625 246.203125 L 261.546875 248.90625 L 259.140625 251.5625 L 256.671875 254.140625 L 254.140625 256.671875 L 251.5625 259.140625 L 248.90625 261.546875 L 246.203125 263.890625 L 243.453125 266.15625 L 240.625 268.375 L 237.75 270.53125 L 234.828125 272.609375 L 231.859375 274.625 L 228.828125 276.5625 L 225.765625 278.421875 L 222.625 280.21875 L 219.46875 281.9375 L 216.25 283.578125 L 213 285.15625 L 209.6875 286.65625 L 206.34375 288.0625 L 202.96875 289.40625 L 199.53125 290.65625 L 196.078125 291.828125 L 192.578125 292.921875 L 189.03125 293.90625 L 185.46875 294.84375 L 181.84375 295.671875 L 178.21875 296.40625 L 174.546875 297.078125 L 170.84375 297.640625 L 167.125 298.109375 L 163.34375 298.484375 L 159.578125 298.78125 L 155.75 298.96875 L 151.921875 299.0625 L 150 299.078125 L 148.078125 299.0625 L 144.234375 298.96875 L 140.40625 298.78125 L 136.640625 298.484375 L 132.859375 298.109375 L 129.140625 297.640625 L 125.4375 297.078125 L 121.765625 296.40625 L 118.140625 295.671875 L 114.515625 294.84375 L 110.953125 293.90625 L 107.40625 292.921875 L 103.90625 291.828125 L 100.453125 290.65625 L 97.015625 289.40625 L 93.640625 288.0625 L 90.296875 286.65625 L 86.984375 285.15625 L 83.734375 283.578125 L 80.515625 281.9375 L 77.359375 280.21875 L 74.21875 278.421875 L 71.15625 276.5625 L 68.125 274.625 L 65.15625 272.609375 L 62.234375 270.53125 L 59.359375 268.375 L 56.53125 266.15625 L 53.78125 263.890625 L 51.078125 261.546875 L 48.421875 259.140625 L 45.84375 256.671875 L 43.3125 254.140625 L 40.84375 251.5625 L 38.4375 248.90625 L 36.09375 246.203125 L 33.828125 243.453125 L 31.609375 240.625 L 29.453125 237.75 L 27.375 234.828125 L 25.359375 231.859375 L 23.421875 228.828125 L 21.5625 225.765625 L 19.765625 222.625 L 18.046875 219.46875 L 16.40625 216.25 L 14.828125 213 L 13.328125 209.6875 L 11.921875 206.34375 L 10.578125 202.96875 L 9.328125 199.53125 L 8.15625 196.078125 L 7.0625 192.578125 L 6.078125 189.03125 L 5.140625 185.46875 L 4.3125 181.84375 L 3.578125 178.21875 L 2.90625 174.546875 L 2.34375 170.84375 L 1.875 167.125 L 1.5 163.34375 L 1.203125 159.578125 L 1.015625 155.75 L 0.921875 151.921875 L 0.90625 150 L 0.921875 148.078125 L 1.015625 144.234375 L 1.203125 140.40625 L 1.5 136.640625 L 1.875 132.859375 L 2.34375 129.140625 L 2.90625 125.4375 L 3.578125 121.765625 L 4.3125 118.140625 L 5.140625 114.515625 L 6.078125 110.953125 L 7.0625 107.40625 L 8.15625 103.90625 L 9.328125 100.453125 L 10.578125 97.015625 L 11.921875 93.640625 L 13.328125 90.296875 L 14.828125 86.984375 L 16.40625 83.734375 L 18.046875 80.515625 L 19.765625 77.359375 L 21.5625 74.21875 L 23.421875 71.15625 L 25.359375 68.125 L 27.375 65.15625 L 29.453125 62.234375 L 31.609375 59.359375 L 33.828125 56.53125 L 36.09375 53.78125 L 38.4375 51.078125 L 40.84375 48.421875 L 43.3125 45.84375 L 45.84375 43.3125 L 48.421875 40.84375 L 51.078125 38.4375 L 53.78125 36.09375 L 56.53125 33.828125 L 59.359375 31.609375 L 62.234375 29.453125 L 65.15625 27.375 L 68.125 25.359375 L 71.15625 23.421875 L 74.21875 21.5625 L 77.359375 19.765625 L 80.515625 18.046875 L 83.734375 16.40625 L 86.984375 14.828125 L 90.296875 13.328125 L 93.640625 11.921875 L 97.015625 10.578125 L 100.453125 9.328125 L 103.90625 8.15625 L 107.40625 7.0625 L 110.953125 6.078125 L 114.515625 5.140625 L 118.140625 4.3125 L 121.765625 3.578125 L 125.4375 2.90625 L 129.140625 2.34375 L 132.859375 1.875 L 136.640625 1.5 L 140.40625 1.203125 L 144.234375 1.015625 L 148.0625 0.921875 L 150 0.90625 Z"/>
    <linearGradient id="linearGradient1" x1="103.184074" y1="65.465404" x2="241.45392" y2="208.67242" gradientUnits="userSpaceOnUse">
        <stop offset="0" stop-color="#0096ff" stop-opacity="1"/>
        <stop offset="1" stop-color="#ff40ff" stop-opacity="1"/>
    </linearGradient>
    <filter id="filter1" x="0" y="0" width="300" height="300" filterUnits="userSpaceOnUse" primitiveUnits="userSpaceOnUse" color-interpolation-filters="sRGB">
        <feGaussianBlur stdDeviation="3"/>
        <feOffset dx="-0" dy="1" result="offsetblur"/>
        <feFlood flood-color="#000000" flood-opacity="0.3"/>
        <feComposite in2="offsetblur" operator="in"/>
        <feMerge>
            <feMergeNode/>
            <feMergeNode in="SourceGraphic"/>
        </feMerge>
    </filter>
    <path id="F" fill="url(#linearGradient1)" fill-rule="evenodd" stroke="#ffffff" stroke-width="3" stroke-linecap="round" stroke-linejoin="round" filter="url(#filter1)" d="M 60.734375 191.984375 L 60.15625 192.515625 L 59.609375 193.078125 L 58.734375 194.046875 L 57.359375 195.8125 L 56.640625 196.78125 L 56.28125 197.28125 L 55.609375 198.3125 L 54.921875 199.421875 L 54.28125 200.546875 L 53.6875 201.703125 L 53.0625 202.96875 L 52.484375 204.234375 L 51.921875 205.5625 L 51.65625 206.234375 L 51.40625 206.90625 L 50.921875 208.3125 L 50.5 209.6875 L 50.140625 211.078125 L 49.84375 212.5 L 49.828125 212.5 L 49.578125 213.9375 L 49.40625 215.328125 L 49.265625 216.859375 L 49.21875 217.578125 L 49.1875 218.765625 L 49.25 220.5 L 49.3125 221.625 L 49.421875 222.796875 L 49.5625 223.84375 L 49.734375 224.921875 L 49.9375 225.9375 L 50.296875 227.375 L 50.875 229.21875 L 50.859375 229.21875 L 51.484375 230.78125 L 52.21875 232.359375 L 53.109375 233.9375 L 53.96875 235.203125 L 55 236.5 L 56.21875 237.796875 L 56.78125 238.328125 L 57.390625 238.875 L 58.6875 239.9375 L 60.078125 240.9375 L 61.5 241.859375 L 63 242.703125 L 64.625 243.515625 L 66.15625 244.1875 L 67.875 244.8125 L 68.734375 245.09375 L 69.59375 245.359375 L 71.375 245.84375 L 73.234375 246.265625 L 73.234375 246.28125 L 75.03125 246.609375 L 76.953125 246.90625 L 78.765625 247.125 L 78.765625 247.109375 L 80.734375 247.25 L 82.6875 247.328125 L 83.640625 247.34375 L 84.59375 247.34375 L 86.546875 247.28125 L 88.484375 247.1875 L 90.421875 247.015625 L 90.421875 247.03125 L 92.28125 246.8125 L 94.1875 246.546875 L 95.96875 246.21875 L 97.828125 245.84375 L 98.671875 245.640625 L 100.09375 245.28125 L 102.796875 244.515625 L 102.796875 244.5 L 104.140625 244.078125 L 104.140625 244.09375 L 104.734375 243.890625 L 106.03125 243.40625 L 107.15625 242.953125 L 108.359375 242.390625 L 108.90625 242.125 L 110.40625 241.375 L 113.1875 239.84375 L 115.984375 238.15625 L 118.65625 236.390625 L 121.21875 234.53125 L 123.625 232.609375 L 126.0625 230.5 L 128.34375 228.34375 L 129.421875 227.234375 L 130.53125 226.078125 L 132.671875 223.734375 L 134.71875 221.328125 L 136.703125 218.859375 L 138.609375 216.3125 L 138.625 216.328125 L 140.421875 213.765625 L 142.21875 211.0625 L 143.890625 208.34375 L 144.703125 206.953125 L 145.515625 205.53125 L 147.078125 202.703125 L 148.578125 199.828125 L 149.984375 196.96875 L 151.375 194.015625 L 152.671875 191.09375 L 153.953125 188.078125 L 155.140625 185.078125 L 155.125 185.078125 L 156.28125 182.015625 L 157.359375 178.984375 L 157.34375 178.984375 L 158.390625 175.921875 L 159.375 172.90625 L 159.359375 172.90625 L 160.328125 169.84375 L 161.203125 166.828125 L 162.0625 163.78125 L 162.84375 160.78125 L 163.21875 159.28125 L 163.90625 156.46875 L 165.1875 151 L 165.390625 150.09375 L 163.03125 150.0625 L 160.765625 150.0625 L 158.734375 150.125 L 156.609375 150.265625 L 154.359375 150.453125 L 154.359375 150.4375 L 153.234375 150.5625 L 152.703125 150.625 L 151.5625 150.796875 L 150.53125 150.96875 L 150.53125 150.984375 L 149.421875 151.21875 L 148.390625 151.484375 L 147.421875 151.765625 L 146.375 152.125 L 145.375 152.5 L 144.90625 152.6875 L 144.5 152.859375 L 143.625 153.296875 L 142.703125 153.84375 L 141.9375 154.375 L 141.265625 154.90625 L 140.484375 155.625 L 139.84375 156.3125 L 139.25 157.046875 L 138.921875 157.484375 L 138.609375 157.84375 L 138.03125 158.375 L 137.359375 158.8125 L 136.609375 159.0625 L 136.109375 159.09375 L 135.640625 159.046875 L 134.953125 158.8125 L 134.375 158.3125 L 133.984375 157.765625 L 133.828125 157.375 L 133.703125 157.015625 L 133.59375 156.296875 L 133.6875 155.5625 L 133.875 154.890625 L 134.046875 154.546875 L 134.484375 153.578125 L 135.25 152.15625 L 135.78125 151.25 L 136.34375 150.375 L 136.921875 149.546875 L 137.53125 148.734375 L 138.171875 147.96875 L 138.828125 147.265625 L 139.515625 146.578125 L 140.21875 145.953125 L 140.9375 145.359375 L 141.703125 144.796875 L 142.5 144.28125 L 143.296875 143.828125 L 144.09375 143.40625 L 144.53125 143.203125 L 145.375 142.828125 L 147.03125 142.1875 L 148.765625 141.640625 L 150.53125 141.171875 L 152.359375 140.796875 L 154.203125 140.546875 L 156.125 140.34375 L 158.0625 140.265625 L 159.046875 140.25 L 159.890625 140.25 L 161.578125 140.296875 L 163.265625 140.390625 L 164.953125 140.53125 L 165.828125 140.640625 L 167.3125 140.8125 L 167.390625 140.828125 L 167.71875 139.234375 L 168.296875 136.34375 L 169.3125 131.03125 L 171.109375 121.453125 L 171.890625 117.21875 L 172.5 114.109375 L 173.734375 108.140625 L 174.96875 102.484375 L 176.234375 97.109375 L 176.859375 94.546875 L 177.453125 92.0625 L 178.546875 87.28125 L 179.546875 82.828125 L 180.28125 79.78125 L 180.765625 77.859375 L 181.03125 76.953125 L 181.515625 75.25 L 181.5 75.25 L 182.890625 69.984375 L 183.25 68.609375 L 181.953125 68.0625 L 179.4375 67.046875 L 178.171875 66.546875 L 175.671875 65.640625 L 173.15625 64.8125 L 170.65625 64.09375 L 168.046875 63.421875 L 165.40625 62.8125 L 165.40625 62.796875 L 162.828125 62.296875 L 160.109375 61.859375 L 158.765625 61.65625 L 157.734375 61.515625 L 157.734375 61.53125 L 155.515625 61.3125 L 154.4375 61.234375 L 153.359375 61.171875 L 151.234375 61.09375 L 150.25 61.078125 L 149.09375 61.09375 L 146.78125 61.1875 L 144.46875 61.390625 L 142.28125 61.65625 L 140.25 62.015625 L 140.25 62.03125 L 138.125 62.515625 L 136.234375 63.0625 L 134.234375 63.734375 L 133.375 64.0625 L 133.375 64.078125 L 132.40625 64.484375 L 130.59375 65.296875 L 128.859375 66.140625 L 127.28125 67.015625 L 125.71875 67.96875 L 124.171875 69.015625 L 124.171875 69 L 122.734375 70.0625 L 121.4375 71.140625 L 120.765625 71.734375 L 120.75 71.71875 L 120.15625 72.296875 L 118.90625 73.515625 L 117.8125 74.65625 L 116.71875 75.921875 L 115.734375 77.140625 L 114.84375 78.375 L 114.015625 79.640625 L 113.28125 80.90625 L 112.953125 81.53125 L 112.609375 82.1875 L 112.03125 83.453125 L 111.53125 84.703125 L 111.125 85.90625 L 110.8125 87 L 110.546875 88.25 L 110.40625 89.25 L 110.328125 90.453125 L 110.3125 91 L 110.328125 91.609375 L 110.40625 92.578125 L 110.5 93.203125 L 110.625 93.78125 L 110.796875 94.421875 L 110.9375 94.859375 L 111.125 95.328125 L 111.359375 95.796875 L 111.671875 96.328125 L 111.875 96.640625 L 112.234375 97.078125 L 112.53125 97.40625 L 112.90625 97.75 L 113.296875 98.0625 L 113.828125 98.421875 L 114.0625 98.578125 L 114.625 98.90625 L 115.875 99.5625 L 117.21875 100.15625 L 118.359375 100.5625 L 119.734375 100.9375 L 120.921875 101.171875 L 122.109375 101.34375 L 123.390625 101.4375 L 123.90625 101.453125 L 124.53125 101.4375 L 125.90625 101.359375 L 127.078125 101.25 L 127.078125 101.234375 L 128.390625 101.015625 L 128.390625 101.03125 L 129.46875 100.765625 L 130.71875 100.390625 L 131.84375 99.984375 L 132.953125 99.5 L 133.421875 99.25 L 133.984375 98.953125 L 135.046875 98.359375 L 136.03125 97.765625 L 136.953125 97.15625 L 137.828125 96.53125 L 138.578125 95.9375 L 139.375 95.25 L 139.390625 95.265625 L 140.390625 94.265625 L 141.015625 93.59375 L 141.71875 92.71875 L 142.125 92.171875 L 142.328125 91.8125 L 142.546875 91.390625 L 142.65625 91.09375 L 142.671875 91.015625 L 142.6875 90.828125 L 142.6875 90.46875 L 142.84375 89.53125 L 143.15625 88.625 L 143.609375 87.828125 L 143.90625 87.4375 L 144.171875 87.109375 L 144.703125 86.578125 L 145.296875 86.09375 L 146.109375 85.765625 L 147.109375 85.765625 L 148.03125 86.328125 L 148.484375 87.125 L 148.640625 87.890625 L 148.640625 88.59375 L 148.5625 89.203125 L 148.359375 90.109375 L 148.140625 90.8125 L 147.984375 91.296875 L 147.65625 92.28125 L 147.296875 93.265625 L 146.875 94.203125 L 146.421875 95.109375 L 145.9375 95.984375 L 145.40625 96.84375 L 144.84375 97.671875 L 144.234375 98.453125 L 143.59375 99.21875 L 142.921875 99.953125 L 142.203125 100.65625 L 141.453125 101.328125 L 140.640625 101.96875 L 139.828125 102.578125 L 138.53125 103.421875 L 137.625 103.9375 L 135.859375 104.875 L 134.03125 105.671875 L 132.203125 106.34375 L 130.328125 106.875 L 128.4375 107.296875 L 126.515625 107.5625 L 124.59375 107.6875 L 123.625 107.703125 L 122.796875 107.703125 L 121.15625 107.609375 L 119.515625 107.40625 L 117.9375 107.109375 L 117.109375 106.921875 L 116.296875 106.703125 L 114.75 106.234375 L 113.234375 105.625 L 111.765625 104.953125 L 111.046875 104.546875 L 110.375 104.171875 L 109.15625 103.359375 L 108.03125 102.5 L 106.96875 101.59375 L 105.984375 100.625 L 105.09375 99.59375 L 104.265625 98.515625 L 103.53125 97.375 L 102.890625 96.1875 L 102.34375 95 L 101.84375 93.765625 L 101.46875 92.53125 L 101.140625 91.265625 L 100.890625 89.984375 L 100.734375 88.671875 L 100.65625 87.34375 L 100.65625 85.90625 L 100.75 84.34375 L 100.953125 82.796875 L 101.25 81.21875 L 101.640625 79.65625 L 102.125 78.078125 L 102.71875 76.5 L 103.375 74.90625 L 103.75 74.09375 L 104.15625 73.296875 L 105.015625 71.734375 L 105.96875 70.203125 L 106.984375 68.703125 L 108.09375 67.234375 L 109.265625 65.8125 L 110.53125 64.421875 L 111.890625 63.0625 L 112.609375 62.390625 L 113.34375 61.734375 L 114.84375 60.484375 L 116.4375 59.28125 L 118.109375 58.140625 L 119.828125 57.078125 L 121.640625 56.0625 L 123.515625 55.125 L 125.453125 54.25 L 126.453125 53.828125 L 127.484375 53.421875 L 129.578125 52.703125 L 131.75 52.078125 L 133.984375 51.578125 L 136.265625 51.15625 L 138.625 50.859375 L 141.03125 50.640625 L 143.515625 50.546875 L 144.78125 50.53125 L 145.765625 50.546875 L 147.765625 50.625 L 149.8125 50.78125 L 151.90625 51.03125 L 154.078125 51.34375 L 156.28125 51.75 L 158.546875 52.21875 L 160.84375 52.796875 L 162.03125 53.09375 L 163.578125 53.53125 L 166.609375 54.390625 L 169.59375 55.3125 L 172.515625 56.28125 L 175.375 57.296875 L 178.171875 58.375 L 180.921875 59.484375 L 183.59375 60.640625 L 184.921875 61.265625 L 185.234375 61.40625 L 185.828125 59.484375 L 186.59375 57.1875 L 187.015625 56.046875 L 187.171875 55.6875 L 187.375 55.03125 L 187.921875 53.5625 L 188.3125 52.65625 L 188.5 52.25 L 188.953125 51.3125 L 189.5625 50.1875 L 190.3125 48.96875 L 190.734375 48.296875 L 190.984375 47.9375 L 191.5 47.28125 L 192.078125 46.640625 L 192.703125 46.03125 L 193.40625 45.46875 L 194.1875 44.96875 L 195.015625 44.53125 L 195.953125 44.140625 L 196.453125 44 L 196.921875 43.859375 L 198.09375 43.6875 L 199.375 43.625 L 200.703125 43.671875 L 201.359375 43.765625 L 201.84375 43.875 L 202.890625 44.1875 L 204.015625 44.609375 L 204.78125 45 L 205.265625 45.3125 L 205.484375 45.5 L 205.828125 45.796875 L 206.359375 46.484375 L 206.75 47.25 L 206.984375 47.984375 L 207.046875 48.390625 L 207.078125 48.734375 L 207.046875 49.34375 L 206.84375 49.96875 L 206.515625 50.515625 L 206.125 50.890625 L 205.734375 51.203125 L 205.296875 51.421875 L 204.828125 51.578125 L 204.53125 51.625 L 204.078125 51.65625 L 203.359375 51.515625 L 202.5 51.234375 L 201.96875 51.109375 L 201.78125 51.078125 L 201.3125 51.09375 L 200.796875 51.171875 L 200.203125 51.3125 L 199.921875 51.390625 L 199.828125 51.421875 L 199.5 51.546875 L 199.390625 51.609375 L 199.375 51.625 L 198.859375 52.171875 L 198.28125 52.84375 L 197.9375 53.21875 L 197.625 53.671875 L 197.109375 54.671875 L 196.671875 55.4375 L 196.46875 55.828125 L 196.21875 56.484375 L 196.015625 57.140625 L 195.71875 57.96875 L 195.5 58.453125 L 195.296875 58.890625 L 195 59.75 L 194.5625 61.140625 L 194.515625 61.328125 L 193.9375 63.296875 L 193.28125 65.46875 L 194.96875 66.375 L 199.953125 69.15625 L 202.1875 70.40625 L 203.28125 71 L 204.890625 71.796875 L 205.65625 72.140625 L 206.328125 72.46875 L 207.875 73.203125 L 210.5 74.34375 L 212.625 75.21875 L 213.6875 75.640625 L 215.984375 76.53125 L 215.984375 76.546875 L 218.359375 77.421875 L 218.359375 77.40625 L 220.90625 78.296875 L 220.90625 78.3125 L 223.484375 79.15625 L 226.125 79.9375 L 228.765625 80.65625 L 231.453125 81.28125 L 232.78125 81.578125 L 234.046875 81.828125 L 236.640625 82.234375 L 239 82.5 L 241.390625 82.640625 L 242.4375 82.65625 L 243.296875 82.640625 L 245.125 82.515625 L 246.765625 82.265625 L 248.234375 81.921875 L 249.21875 81.609375 L 249.84375 81.328125 L 250.328125 81.046875 L 250.90625 80.65625 L 251.34375 80.265625 L 251.75 79.828125 L 252.078125 79.375 L 252.328125 78.9375 L 252.5 78.59375 L 252.796875 77.9375 L 253.28125 77.015625 L 253.625 76.484375 L 254.015625 75.96875 L 254.46875 75.5625 L 255.015625 75.171875 L 255.625 75 L 256.09375 74.9375 L 256.5 75 L 256.953125 75.140625 L 257.484375 75.484375 L 257.890625 76 L 258.15625 76.6875 L 258.296875 77.546875 L 258.3125 78.046875 L 258.3125 79.015625 L 258.28125 79.375 L 258.1875 79.96875 L 258.140625 80.09375 L 258.046875 80.671875 L 257.734375 81.796875 L 257.296875 82.890625 L 256.703125 83.921875 L 256 84.890625 L 255.15625 85.828125 L 254.21875 86.6875 L 253.15625 87.484375 L 252.578125 87.859375 L 251.984375 88.21875 L 250.765625 88.875 L 249.46875 89.453125 L 248.125 89.90625 L 246.71875 90.28125 L 245.265625 90.546875 L 243.765625 90.734375 L 242.21875 90.828125 L 241.40625 90.828125 L 240.46875 90.8125 L 239.453125 90.765625 L 238.421875 90.65625 L 237.328125 90.515625 L 236.234375 90.3125 L 234.09375 89.90625 L 231.96875 89.453125 L 229.90625 88.9375 L 227.875 88.390625 L 225.890625 87.8125 L 223.921875 87.171875 L 222.015625 86.5 L 221.046875 86.15625 L 219.21875 85.4375 L 215.78125 84.0625 L 212.671875 82.71875 L 209.828125 81.390625 L 206.21875 79.59375 L 203 78.09375 L 202.109375 77.640625 L 201 77.03125 L 199.265625 76.015625 L 198.765625 75.6875 L 196.609375 74.609375 L 192.09375 72.46875 L 191.421875 72.15625 L 190.765625 74.875 L 190.78125 74.875 L 190.109375 77.859375 L 189.5 80.828125 L 188.65625 85.296875 L 188.671875 85.296875 L 187.625 91.28125 L 187.140625 94.25 L 185.96875 101.265625 L 184.25 112.046875 L 183.171875 119.34375 L 182.671875 123.03125 L 181.984375 128.28125 L 180.9375 136.34375 L 180.1875 141.796875 L 180 143.0625 L 180.5625 143.140625 L 183.765625 143.484375 L 183.765625 143.46875 L 186.046875 143.640625 L 187.1875 143.703125 L 189.859375 143.828125 L 193.6875 144.015625 L 196.109375 144.09375 L 197.25 144.109375 L 198.40625 144.09375 L 200.546875 144.0625 L 201.5625 144.03125 L 203.484375 143.96875 L 205.078125 143.953125 L 206 143.953125 L 206.765625 143.96875 L 207.796875 144.0625 L 208.40625 144.21875 L 208.984375 144.40625 L 209.59375 144.75 L 210.125 145.3125 L 210.4375 146.046875 L 210.4375 146.5625 L 210.390625 146.96875 L 210.140625 147.65625 L 209.640625 148.234375 L 209.125 148.609375 L 208.53125 148.953125 L 207.875 149.234375 L 206.78125 149.625 L 205.921875 149.859375 L 205.265625 150.03125 L 203.671875 150.296875 L 201.75 150.53125 L 199.453125 150.71875 L 198.15625 150.796875 L 196.828125 150.875 L 194.109375 150.984375 L 191.375 151.0625 L 188.59375 151.09375 L 185.484375 151.09375 L 182.1875 151.015625 L 180.609375 150.953125 L 179.78125 150.921875 L 178.828125 150.9375 L 178.6875 151.78125 L 178.34375 153.890625 L 178 155.890625 L 177.234375 159.953125 L 176.390625 164.09375 L 175.4375 168.28125 L 174.40625 172.53125 L 173.21875 176.84375 L 171.953125 181.203125 L 170.515625 185.625 L 169.765625 187.859375 L 169.25 189.328125 L 168.15625 192.1875 L 167 194.96875 L 165.75 197.734375 L 164.40625 200.4375 L 162.984375 203.09375 L 161.46875 205.703125 L 159.890625 208.234375 L 159.046875 209.484375 L 158.203125 210.71875 L 156.5 213.140625 L 154.734375 215.5 L 152.9375 217.796875 L 151.09375 220.03125 L 149.21875 222.203125 L 147.28125 224.3125 L 145.3125 226.328125 L 144.3125 227.328125 L 143.296875 228.328125 L 141.296875 230.1875 L 139.296875 232.03125 L 137.28125 233.765625 L 135.25 235.453125 L 133.25 237.046875 L 131.21875 238.5625 L 129.203125 240.015625 L 128.1875 240.71875 L 127.1875 241.40625 L 125.1875 242.6875 L 123.234375 243.890625 L 121.296875 245.03125 L 119.40625 246.0625 L 117.515625 247.015625 L 115.6875 247.890625 L 113.875 248.671875 L 112.984375 249.046875 L 112.125 249.40625 L 110.375 250.09375 L 108.625 250.734375 L 106.890625 251.3125 L 106 251.59375 L 104.296875 252.109375 L 100.890625 253.046875 L 99.21875 253.453125 L 98.03125 253.75 L 95.65625 254.25 L 93.328125 254.6875 L 91.03125 255.046875 L 88.75 255.328125 L 86.5 255.5625 L 84.28125 255.703125 L 82.09375 255.78125 L 81 255.796875 L 80.078125 255.78125 L 78.3125 255.734375 L 76.515625 255.640625 L 74.75 255.5 L 73.859375 255.390625 L 73.125 255.296875 L 71.6875 255.09375 L 70.265625 254.84375 L 68.875 254.5625 L 67.53125 254.234375 L 66.171875 253.875 L 64.875 253.46875 L 63.609375 253.03125 L 62.359375 252.5625 L 61.125 252.0625 L 59.921875 251.5 L 58.75 250.921875 L 57.609375 250.28125 L 56.5 249.640625 L 55.421875 248.9375 L 54.390625 248.203125 L 53.859375 247.796875 L 53.34375 247.40625 L 52.359375 246.578125 L 51.421875 245.734375 L 50.515625 244.84375 L 49.65625 243.890625 L 48.828125 242.921875 L 48.0625 241.921875 L 47.328125 240.859375 L 46.65625 239.765625 L 46.015625 238.65625 L 45.421875 237.5 L 44.859375 236.3125 L 44.34375 235.09375 L 43.890625 233.8125 L 43.46875 232.515625 L 43.109375 231.203125 L 42.9375 230.515625 L 42.6875 229.453125 L 42.296875 227.296875 L 42 225.0625 L 41.828125 222.75 L 41.765625 220.359375 L 41.828125 217.875 L 42 215.3125 L 42.3125 212.671875 L 42.515625 211.296875 L 42.640625 210.59375 L 42.9375 209.21875 L 43.3125 207.84375 L 43.734375 206.484375 L 44.25 205.109375 L 44.84375 203.75 L 45.46875 202.40625 L 46.1875 201.0625 L 46.96875 199.734375 L 47.765625 198.453125 L 48.578125 197.234375 L 49.40625 196.0625 L 50.25 194.921875 L 51.125 193.84375 L 52 192.8125 L 52.90625 191.828125 L 53.375 191.359375 L 53.828125 190.890625 L 54.71875 190.046875 L 55.5625 189.296875 L 56.40625 188.625 L 57.203125 188.0625 L 58 187.578125 L 58.765625 187.1875 L 59.53125 186.90625 L 59.90625 186.796875 L 60.390625 186.671875 L 60.796875 186.59375 L 61.5 186.5 L 62.296875 186.578125 L 63.0625 186.96875 L 63.625 187.8125 L 63.625 188.484375 L 63.53125 189.015625 L 63.203125 189.640625 L 62.890625 190.0625 L 62.53125 190.453125 L 61.859375 191.078125 L 61.296875 191.5 Z"/>
</svg>
